<?xml version="1.0" encoding="UTF-8" standalone="no"?>
<svg
   xmlns:dc="http://purl.org/dc/elements/1.1/"
   xmlns:cc="http://creativecommons.org/ns#"
   xmlns:rdf="http://www.w3.org/1999/02/22-rdf-syntax-ns#"
   xmlns:svg="http://www.w3.org/2000/svg"
   xmlns="http://www.w3.org/2000/svg"
   width="21.960419mm"
   height="21.960476mm"
   viewBox="0 0 21.960419 21.960476"
   version="1.1"
   id="svg8">
  <defs
     id="defs2">
    <clipPath
       clipPathUnits="userSpaceOnUse"
       id="clipPath1517">
      <path
         id="path1519"
         style="opacity:1;fill:#aa0000;fill-opacity:0.994177;stroke:#1a1a1a;stroke-width:0.153458;stroke-linecap:butt;stroke-linejoin:miter;stroke-miterlimit:4;stroke-dasharray:none;stroke-opacity:1"
         d="m -54.046513,106.38622 0.89618,0.71392 a 0.22791817,0.22791817 0 0 1 0.0859,0.17827 v 1.09554 a 0.99790766,0.99790766 0 0 0 0.16306,0.54667 l 0.12414,0.18958 a 1.2502196,1.2502196 0 0 0 0.42085,0.39784 l 1.39483,0.80526 a 0.28173,0.28173 0 0 1 0.13526,0.29995 l -0.0784,0.38681 a 0.27543694,0.27543694 0 0 1 -0.24186,0.21929 l -2.52239,0.25859 a 0.32849307,0.32849307 0 0 0 -0.27357,0.21012 l -0.0851,0.22397 a 0.29378643,0.29378643 0 0 1 -0.27464,0.18945 h -0.95655 a 0.29376695,0.29376695 0 0 1 -0.27463,-0.18945 l -0.0871,-0.22938 a 0.32847769,0.32847769 0 0 0 -0.27357,-0.21013 l -2.469,-0.25316 a 0.27544252,0.27544252 0 0 1 -0.24186,-0.2193 l -0.0784,-0.38681 a 0.28172137,0.28172137 0 0 1 0.13526,-0.29995 l 1.39496,-0.80527 a 1.250137,1.250137 0 0 0 0.42085,-0.39783 l 0.12414,-0.18958 a 0.99790766,0.99790766 0 0 0 0.16306,-0.54667 v -1.09554 a 0.22791817,0.22791817 0 0 1 0.0859,-0.17827 l 0.89618,-0.71392 a 0.05292737,0.05292737 0 0 1 0.0859,0.0414 v 0.63113 0.57139 c 0,0.0607 0.0464,0.0934 0.10414,0.075 0.10528,-0.0336 0.27157,-0.0822 0.40876,-0.1017 0.06,-0.008 0.15875,-0.008 0.2186,0.002 0.13772,0.0219 0.30442,0.0737 0.40965,0.10925 0.0574,0.0194 0.1035,-0.0126 0.1035,-0.0732 v -0.36281 -0.8508 a 0.05292737,0.05292737 0 0 1 0.0859,-0.0414 z" />
    </clipPath>
  </defs>
  <metadata
     id="metadata5">
    <rdf:RDF>
      <cc:Work
         rdf:about="">
        <dc:format>image/svg+xml</dc:format>
        <dc:type
           rdf:resource="http://purl.org/dc/dcmitype/StillImage" />
        <dc:title></dc:title>
      </cc:Work>
    </rdf:RDF>
  </metadata>
  <g
     id="layer1"
     transform="matrix(4.0135891,0,0,4.0135076,-241.52351,-464.19202)"
     style="stroke-width:0.99577">
    <path
       id="path833"
       style="fill:#666666;stroke:#333333;stroke-width:0.149365;stroke-miterlimit:4;stroke-dasharray:none"
       d="m 62.377423,115.765 c -0.956115,0.28375 -2.016892,1.1232 -2.115635,2.11563 -0.01605,0.16135 -0.0137,0.32949 0.0052,0.50046 0.653849,0.0483 0.814515,0.56103 0.214119,0.98008 0.322123,0.927 1.001813,1.48776 1.863216,1.64898 0.103846,0.0207 0.2168,0.035 0.334972,0.0419 0.239901,-0.35526 0.403318,-0.6143 0.889252,-0.12615 0.829602,-0.31937 1.204329,-0.87847 1.422276,-1.40301 -0.320256,-0.83634 0.0742,-0.94768 0.492461,-0.8723 0.148056,-0.41025 0.128746,-1.77575 -0.184302,-1.90891 -0.736937,0.11898 -0.789509,-0.31892 -0.681258,-0.57851 -0.507005,-0.50336 -0.664505,-0.45111 -2.240301,-0.39817 z" />
    <path
       id="circle1033"
       style="fill:#4d4d4d;stroke:#333333;stroke-width:0.149365;stroke-miterlimit:4;stroke-dasharray:none"
       d="m 64.148293,119.74378 c -10e-7,0.29381 -0.181898,0.61772 -0.475714,0.61772 -0.293816,0 -0.415214,-0.12868 -0.415215,-0.4225 10e-7,-0.29381 -0.01842,-0.69838 0.275397,-0.69838 0.293816,0 0.615531,0.20934 0.615532,0.50316 z" />
    <path
       id="path1042"
       style="fill:#4d4d4d;stroke:#333333;stroke-width:0.149365;stroke-miterlimit:4;stroke-dasharray:none"
       d="m 61.801844,117.03334 c 0.120442,0.26811 0.06985,0.52729 -0.149077,0.75671 -0.218924,0.22942 -0.621459,0.19228 -0.741903,-0.0759 -0.120442,-0.26811 0.0072,-0.42994 0.226093,-0.65936 0.218924,-0.22943 0.544435,-0.28964 0.664887,-0.0215 z" />
    <path
       id="path1044"
       style="fill:#4d4d4d;stroke:#333333;stroke-width:0.149365;stroke-miterlimit:4;stroke-dasharray:none"
       d="m 62.346094,120.18565 c -10e-7,0.29381 -0.02172,0.42449 -0.315531,0.42449 -0.293816,0 -0.438347,-0.24049 -0.438348,-0.53431 10e-7,-0.29381 0.212976,-0.28436 0.506793,-0.28436 0.293816,0 0.247085,0.10036 0.247086,0.39418 z" />
    <path
       id="path1048"
       style="fill:#4d4d4d;stroke:#333333;stroke-width:0.149365;stroke-miterlimit:4;stroke-dasharray:none"
       d="m 64.307656,116.70863 c -10e-7,0.29381 0.07797,0.37417 -0.197909,0.47525 -0.247582,0.0907 -0.670513,-0.21963 -0.670514,-0.51345 10e-7,-0.29381 0.0075,-0.37064 0.30128,-0.37064 0.293816,0 0.567142,0.11502 0.567143,0.40884 z" />
    <path
       id="path1050"
       style="fill:#4d4d4d;stroke:#333333;stroke-width:0.149365;stroke-miterlimit:4;stroke-dasharray:none"
       d="m 62.25256,118.30793 c 0.14803,-0.29381 0.229598,-0.4126 0.442369,-0.25175 0.212765,0.16087 0.196268,0.48048 0.04823,0.7743 -0.14803,0.29381 -0.297498,0.16776 -0.510319,0.007 -0.212771,-0.16086 -0.128369,-0.23563 0.01966,-0.52945 z" />
  </g>
</svg>
