<?xml version="1.0" encoding="UTF-8" standalone="no"?>
<svg width="30.691668mm" height="30.692747mm" viewBox="0 0 30.691668 30.692747" version="1.1" id="svg8" sodipodi:docname="player.svg" inkscape:version="1.3.2 (091e20ef0f, 2023-11-25, custom)" xmlns:inkscape="http://www.inkscape.org/namespaces/inkscape" xmlns:sodipodi="http://sodipodi.sourceforge.net/DTD/sodipodi-0.dtd" xmlns="http://www.w3.org/2000/svg" xmlns:svg="http://www.w3.org/2000/svg" xmlns:rdf="http://www.w3.org/1999/02/22-rdf-syntax-ns#" xmlns:cc="http://creativecommons.org/ns#" xmlns:dc="http://purl.org/dc/elements/1.1/">
  <sodipodi:namedview id="namedview1" pagecolor="#ffffff" bordercolor="#000000" borderopacity="0.25" inkscape:showpageshadow="2" inkscape:pageopacity="0.0" inkscape:pagecheckerboard="0" inkscape:deskcolor="#d1d1d1" inkscape:document-units="mm" inkscape:zoom="3.873739" inkscape:cx="52.920446" inkscape:cy="48.919144" inkscape:current-layer="svg8" />
  <defs id="defs2">
    <clipPath clipPathUnits="userSpaceOnUse" id="clipPath1517">
      <path id="path1519" style="opacity:1;fill:#aa0000;fill-opacity:0.994177;stroke:#1a1a1a;stroke-width:0.153458;stroke-linecap:butt;stroke-linejoin:miter;stroke-miterlimit:4;stroke-dasharray:none;stroke-opacity:1" d="m -54.046513,106.38622 0.89618,0.71392 a 0.22791817,0.22791817 0 0 1 0.0859,0.17827 v 1.09554 a 0.99790766,0.99790766 0 0 0 0.16306,0.54667 l 0.12414,0.18958 a 1.2502196,1.2502196 0 0 0 0.42085,0.39784 l 1.39483,0.80526 a 0.28173,0.28173 0 0 1 0.13526,0.29995 l -0.0784,0.38681 a 0.27543694,0.27543694 0 0 1 -0.24186,0.21929 l -2.52239,0.25859 a 0.32849307,0.32849307 0 0 0 -0.27357,0.21012 l -0.0851,0.22397 a 0.29378643,0.29378643 0 0 1 -0.27464,0.18945 h -0.95655 a 0.29376695,0.29376695 0 0 1 -0.27463,-0.18945 l -0.0871,-0.22938 a 0.32847769,0.32847769 0 0 0 -0.27357,-0.21013 l -2.469,-0.25316 a 0.27544252,0.27544252 0 0 1 -0.24186,-0.2193 l -0.0784,-0.38681 a 0.28172137,0.28172137 0 0 1 0.13526,-0.29995 l 1.39496,-0.80527 a 1.250137,1.250137 0 0 0 0.42085,-0.39783 l 0.12414,-0.18958 a 0.99790766,0.99790766 0 0 0 0.16306,-0.54667 v -1.09554 a 0.22791817,0.22791817 0 0 1 0.0859,-0.17827 l 0.89618,-0.71392 a 0.05292737,0.05292737 0 0 1 0.0859,0.0414 v 0.63113 0.57139 c 0,0.0607 0.0464,0.0934 0.10414,0.075 0.10528,-0.0336 0.27157,-0.0822 0.40876,-0.1017 0.06,-0.008 0.15875,-0.008 0.2186,0.002 0.13772,0.0219 0.30442,0.0737 0.40965,0.10925 0.0574,0.0194 0.1035,-0.0126 0.1035,-0.0732 v -0.36281 -0.8508 a 0.05292737,0.05292737 0 0 1 0.0859,-0.0414 z" />
    </clipPath>
  </defs>
  <metadata id="metadata5">
    <rdf:RDF>
      <cc:Work rdf:about="">
        <dc:format>image/svg+xml</dc:format>
        <dc:type rdf:resource="http://purl.org/dc/dcmitype/StillImage" />
      </cc:Work>
    </rdf:RDF>
  </metadata>
  <ellipse style="opacity:0.5;fill:#00ff00;fill-opacity:1;stroke:none;stroke-width:1.1417;stroke-miterlimit:4;stroke-dasharray:none;stroke-opacity:1" id="circle1447" cx="15.346818" cy="15.653623" transform="matrix(0,1,1,0,0,0)" rx="7.9253178" ry="7.9316831" />
  <rect style="opacity:0;fill:#d40000;fill-opacity:1;stroke-width:1.1417" id="rect1449" width="30.691668" height="30.667042" x="-30.691668" y="0.013087773" transform="scale(-1,1)" />
  <g id="g1" transform="translate(-1.9073486e-6,3.6873406e-4)">
    <rect style="fill:#4d4d4d;fill-opacity:1;stroke:#1a1a1a;stroke-width:0.613135;stroke-miterlimit:4;stroke-dasharray:none;stroke-opacity:1;paint-order:normal" id="rect1501" width="3.045305" height="8.643466" x="-27.753914" y="-17.212723" rx="1.5226525" ry="1.5238755" transform="matrix(0,-1,-1,0,0,0)" />
    <rect style="fill:#4d4d4d;fill-opacity:1;stroke:#1a1a1a;stroke-width:0.613135;stroke-miterlimit:4;stroke-dasharray:none;stroke-opacity:1;paint-order:normal" id="rect1503" width="3.045305" height="8.643466" x="-5.9843397" y="-17.212723" rx="1.5226525" ry="1.5238755" transform="matrix(0,-1,-1,0,0,0)" />
  </g>
  <path id="path1451" style="fill:#cccccc;fill-opacity:1;stroke:#1a1a1a;stroke-width:0.613135;stroke-linecap:butt;stroke-linejoin:miter;stroke-miterlimit:4;stroke-dasharray:none;stroke-opacity:1" d="m 28.451563,18.055277 -2.730357,3.425574 c -0.165479,0.207682 -0.416615,0.327897 -0.6821,0.327897 H 20.84762 c -0.743055,0 -1.470202,0.217664 -2.091786,0.62424 l -0.725588,0.474153 c -0.626381,0.409849 -1.148198,0.960124 -1.522363,1.608047 l -3.080341,5.33392 c -0.231431,0.400863 -0.692732,0.607546 -1.146719,0.515608 L 10.799949,30.066373 C 10.34792,29.974913 10.008729,29.60029 9.9616436,29.141836 L 8.9928741,19.702784 C 8.9445095,19.230311 8.632738,18.826373 8.188184,18.657752 L 7.3103479,18.323865 C 6.874028,18.15812 6.5867185,17.741241 6.5867185,17.274838 v -3.656661 c 0,-0.466403 0.2873894,-0.885357 0.7236294,-1.050983 L 8.1684387,12.241293 C 8.6126728,12.072754 8.9225256,11.668695 8.9711298,11.196222 L 9.9616436,1.5537232 C 10.008809,1.0952669 10.34776,0.72068486 10.799949,0.62918341 l 1.480874,-0.30033603 c 0.453987,-0.091861 0.915248,0.11661934 1.146719,0.51756439 l 3.080341,5.33192163 c 0.374525,0.6479654 0.895982,1.1982404 1.522363,1.6080895 l 0.725588,0.4761084 c 0.621584,0.4066951 1.348731,0.6222817 2.091786,0.6222817 h 4.191486 c 0.265405,0 0.516421,0.1206166 0.6821,0.3278967 l 2.730357,3.4275333 c 0.04837,0.04952 0.06475,0.228049 -0.02798,0.300336 -0.03198,0.02395 -0.07275,0.03595 -0.130705,0.02796 h -3.25629 -1.387943 c -0.231829,0 -0.35294,0.17573 -0.278595,0.394994 0.1359,0.402261 0.333356,1.04008 0.417174,1.566591 0.03997,0.228847 0.03997,0.606269 0.008,0.835637 -0.07475,0.524472 -0.261009,1.160176 -0.389315,1.562636 -0.07035,0.220861 0.05436,0.398986 0.28659,0.398986 h 2.186677 2.414029 c 0.255453,-0.05591 0.197376,0.191706 0.158364,0.327897 z" />
  <path id="path1453" style="fill:#1a1a1a;fill-opacity:0.713363;stroke:#1a1a1a;stroke-width:0.613135;stroke-miterlimit:4;stroke-dasharray:none;stroke-opacity:1;paint-order:normal" d="m 18.875866,18.076387 a 4.8067813,2.7295203 0 0 1 -4.806755,-2.729564 4.8067813,2.7295203 0 0 1 4.806755,-2.729525 4.8067813,2.7295203 0 0 1 4.806795,2.729525 4.8067813,2.7295203 0 0 1 -4.806795,2.729564 z" />
  <path id="path879" style="fill:none;fill-opacity:0;stroke:#1a1a1a;stroke-width:0.613135;stroke-linecap:butt;stroke-linejoin:miter;stroke-miterlimit:4;stroke-dasharray:none;stroke-opacity:1" d="m 20.84762,8.8839172 h 4.191486 c 0.265405,0 0.516421,0.1206166 0.6821,0.3278967 l 2.730357,3.4275331 c 0.04837,0.04952 0.06475,0.228049 -0.02798,0.300336 -0.03198,0.02395 -0.07275,0.03595 -0.130705,0.02796 h -3.25629 -1.387943 c -0.231829,0 -0.35294,0.17573 -0.278595,0.394994 z" />
  <path style="fill:#1a1a1a;fill-opacity:1;stroke:#1a1a1a;stroke-width:0.613135;stroke-linecap:butt;stroke-linejoin:miter;stroke-miterlimit:4;stroke-dasharray:none;stroke-opacity:1" d="M 23.406183,17.327379 20.84738,21.808492" id="path1489" />
  <path id="path1550" style="fill:#000000;fill-opacity:0.5;stroke:#1a1a1a;stroke-width:0.613135;stroke-linecap:butt;stroke-linejoin:miter;stroke-miterlimit:4;stroke-dasharray:none;stroke-opacity:1" d="m 18.030286,22.906284 c -0.626381,0.409849 -1.148198,0.960164 -1.522364,1.608087 l -3.08034,5.333881 c -0.231431,0.400905 -0.692732,0.607588 -1.14672,0.515647 l -1.480874,-0.29834 C 10.34796,29.974099 10.008769,29.599436 9.9616835,29.14098 L 8.992914,19.70197 Z" />
  <path id="path1553" style="fill:#000000;fill-opacity:0.5;stroke:#1a1a1a;stroke-width:0.613135;stroke-linecap:butt;stroke-linejoin:miter;stroke-miterlimit:4;stroke-dasharray:none;stroke-opacity:1" d="M 18.030286,7.785646 C 17.403905,7.3757573 16.882088,6.8254823 16.507922,6.1775592 L 13.427582,0.84363635 C 13.196151,0.44277324 12.73485,0.23609064 12.280862,0.32803094 L 10.799988,0.62637097 C 10.34796,0.71783012 10.008769,1.0924544 9.9617235,1.5509107 L 8.992914,10.98996 Z" />
  <path id="path1537" style="fill:#000000;fill-opacity:0.5;stroke:#1a1a1a;stroke-width:0.613135;stroke-linecap:butt;stroke-linejoin:miter;stroke-miterlimit:4;stroke-dasharray:none;stroke-opacity:1" d="M 8.992914,19.571286 C 8.9497456,19.051963 8.5473207,18.614157 8.0530833,18.47481 7.7181287,18.333028 7.3556747,18.245563 7.0469012,18.049704 6.6987563,17.808476 6.551944,17.372346 6.5867987,16.962695 c 0.0022,-1.187615 -0.00384,-2.375389 0.00332,-3.562883 0.02798,-0.48134 0.3981083,-0.890153 0.8554927,-1.015481 0.3397509,-0.143778 0.707761,-0.230444 1.0178937,-0.434491 0.2694021,-0.195299 0.4533873,-0.500549 0.5006726,-0.829406 0,0 -0.9194057,2.7844 -0.9147292,4.225426 0.00384,1.443101 0.9434682,4.225426 0.9434682,4.225426 z" />
  <path id="path884" style="fill:none;fill-opacity:0;stroke:#1a1a1a;stroke-width:0.613135;stroke-linecap:butt;stroke-linejoin:miter;stroke-miterlimit:4;stroke-dasharray:none;stroke-opacity:1" d="m 20.84762,21.807852 h 4.191486 c 0.265405,0 0.516421,-0.120614 0.6821,-0.327897 l 2.730357,-3.42753 c 0.04837,-0.04952 0.06475,-0.228049 -0.02798,-0.300339 -0.03198,-0.02395 -0.07275,-0.03594 -0.130705,-0.02796 h -3.25629 -1.387943 c -0.231829,0 -0.35294,-0.17573 -0.278595,-0.394992 z" />
</svg>
