<?xml version="1.0" encoding="UTF-8" standalone="no"?>
<svg
   xmlns:dc="http://purl.org/dc/elements/1.1/"
   xmlns:cc="http://creativecommons.org/ns#"
   xmlns:rdf="http://www.w3.org/1999/02/22-rdf-syntax-ns#"
   xmlns:svg="http://www.w3.org/2000/svg"
   xmlns="http://www.w3.org/2000/svg"
   xmlns:xlink="http://www.w3.org/1999/xlink"
   width="65.616669mm"
   height="10.054167mm"
   viewBox="0 0 65.616669 10.054167"
   version="1.1"
   id="svg8">
  <defs
     id="defs2">
    <linearGradient
       id="linearGradient2206">
      <stop
         style="stop-color:#ff0000;stop-opacity:1"
         offset="0"
         id="stop2202" />
      <stop
         style="stop-color:#ff0000;stop-opacity:0"
         offset="1"
         id="stop2204" />
    </linearGradient>
    <clipPath
       clipPathUnits="userSpaceOnUse"
       id="clipPath1517">
      <path
         id="path1519"
         style="opacity:1;fill:#aa0000;fill-opacity:0.994177;stroke:#1a1a1a;stroke-width:0.153458;stroke-linecap:butt;stroke-linejoin:miter;stroke-miterlimit:4;stroke-dasharray:none;stroke-opacity:1"
         d="m -54.046513,106.38622 0.89618,0.71392 a 0.22791817,0.22791817 0 0 1 0.0859,0.17827 v 1.09554 a 0.99790766,0.99790766 0 0 0 0.16306,0.54667 l 0.12414,0.18958 a 1.2502196,1.2502196 0 0 0 0.42085,0.39784 l 1.39483,0.80526 a 0.28173,0.28173 0 0 1 0.13526,0.29995 l -0.0784,0.38681 a 0.27543694,0.27543694 0 0 1 -0.24186,0.21929 l -2.52239,0.25859 a 0.32849307,0.32849307 0 0 0 -0.27357,0.21012 l -0.0851,0.22397 a 0.29378643,0.29378643 0 0 1 -0.27464,0.18945 h -0.95655 a 0.29376695,0.29376695 0 0 1 -0.27463,-0.18945 l -0.0871,-0.22938 a 0.32847769,0.32847769 0 0 0 -0.27357,-0.21013 l -2.469,-0.25316 a 0.27544252,0.27544252 0 0 1 -0.24186,-0.2193 l -0.0784,-0.38681 a 0.28172137,0.28172137 0 0 1 0.13526,-0.29995 l 1.39496,-0.80527 a 1.250137,1.250137 0 0 0 0.42085,-0.39783 l 0.12414,-0.18958 a 0.99790766,0.99790766 0 0 0 0.16306,-0.54667 v -1.09554 a 0.22791817,0.22791817 0 0 1 0.0859,-0.17827 l 0.89618,-0.71392 a 0.05292737,0.05292737 0 0 1 0.0859,0.0414 v 0.63113 0.57139 c 0,0.0607 0.0464,0.0934 0.10414,0.075 0.10528,-0.0336 0.27157,-0.0822 0.40876,-0.1017 0.06,-0.008 0.15875,-0.008 0.2186,0.002 0.13772,0.0219 0.30442,0.0737 0.40965,0.10925 0.0574,0.0194 0.1035,-0.0126 0.1035,-0.0732 v -0.36281 -0.8508 a 0.05292737,0.05292737 0 0 1 0.0859,-0.0414 z" />
    </clipPath>
    <linearGradient
       xlink:href="#linearGradient2206"
       id="linearGradient2208"
       x1="42.589031"
       y1="115.35278"
       x2="52.727337"
       y2="115.35278"
       gradientUnits="userSpaceOnUse"
       gradientTransform="matrix(0.81367288,0,0,0.50854556,13.195352,57.610698)" />
    <filter
       style="color-interpolation-filters:sRGB"
       id="filter2284"
       x="-0.76036978"
       width="2.5207396"
       y="-0.76036978"
       height="2.5207396">
      <feGaussianBlur
         stdDeviation="0.31682074"
         id="feGaussianBlur2286" />
    </filter>
  </defs>
  <metadata
     id="metadata5">
    <rdf:RDF>
      <cc:Work
         rdf:about="">
        <dc:format>image/svg+xml</dc:format>
        <dc:type
           rdf:resource="http://purl.org/dc/dcmitype/StillImage" />
        <dc:title></dc:title>
      </cc:Work>
    </rdf:RDF>
  </metadata>
  <g
     id="layer1"
     transform="translate(-42.945727,-115.01242)">
    <g
       id="g853"
       transform="matrix(4.1010417,0,0,3.9885702,-133.17648,-343.72284)">
      <rect
         style="opacity:1;fill:url(#linearGradient2208);fill-opacity:1;stroke:none;stroke-width:0.15"
         id="rect2200"
         width="8"
         height="1"
         x="50.445724"
         y="115.77283"
         rx="0.5"
         ry="0.5" />
      <circle
         style="opacity:0.5;fill:#ff0000;fill-opacity:1;stroke:none;stroke-width:0.15"
         id="path2198"
         cx="50.945724"
         cy="116.27283"
         r="0.5" />
      <circle
         style="opacity:1;fill:#ff0000;fill-opacity:1;stroke:none;stroke-width:0.15;filter:url(#filter2284)"
         id="circle2210"
         cx="50.945724"
         cy="116.27283"
         r="0.5" />
      <rect
         style="opacity:0;fill:#501616;fill-opacity:0.5;stroke-width:0.15"
         id="rect847"
         width="16"
         height="2.5207431"
         x="42.945724"
         y="115.01246" />
    </g>
  </g>
</svg>
