<?xml version="1.0" encoding="UTF-8" standalone="no"?>
<svg
   xmlns:dc="http://purl.org/dc/elements/1.1/"
   xmlns:cc="http://creativecommons.org/ns#"
   xmlns:rdf="http://www.w3.org/1999/02/22-rdf-syntax-ns#"
   xmlns:svg="http://www.w3.org/2000/svg"
   xmlns="http://www.w3.org/2000/svg"
   width="21.960419mm"
   height="21.960476mm"
   viewBox="0 0 21.960419 21.960476"
   version="1.1"
   id="svg8">
  <defs
     id="defs2">
    <clipPath
       clipPathUnits="userSpaceOnUse"
       id="clipPath1517">
      <path
         id="path1519"
         style="opacity:1;fill:#aa0000;fill-opacity:0.994177;stroke:#1a1a1a;stroke-width:0.153458;stroke-linecap:butt;stroke-linejoin:miter;stroke-miterlimit:4;stroke-dasharray:none;stroke-opacity:1"
         d="m -54.046513,106.38622 0.89618,0.71392 a 0.22791817,0.22791817 0 0 1 0.0859,0.17827 v 1.09554 a 0.99790766,0.99790766 0 0 0 0.16306,0.54667 l 0.12414,0.18958 a 1.2502196,1.2502196 0 0 0 0.42085,0.39784 l 1.39483,0.80526 a 0.28173,0.28173 0 0 1 0.13526,0.29995 l -0.0784,0.38681 a 0.27543694,0.27543694 0 0 1 -0.24186,0.21929 l -2.52239,0.25859 a 0.32849307,0.32849307 0 0 0 -0.27357,0.21012 l -0.0851,0.22397 a 0.29378643,0.29378643 0 0 1 -0.27464,0.18945 h -0.95655 a 0.29376695,0.29376695 0 0 1 -0.27463,-0.18945 l -0.0871,-0.22938 a 0.32847769,0.32847769 0 0 0 -0.27357,-0.21013 l -2.469,-0.25316 a 0.27544252,0.27544252 0 0 1 -0.24186,-0.2193 l -0.0784,-0.38681 a 0.28172137,0.28172137 0 0 1 0.13526,-0.29995 l 1.39496,-0.80527 a 1.250137,1.250137 0 0 0 0.42085,-0.39783 l 0.12414,-0.18958 a 0.99790766,0.99790766 0 0 0 0.16306,-0.54667 v -1.09554 a 0.22791817,0.22791817 0 0 1 0.0859,-0.17827 l 0.89618,-0.71392 a 0.05292737,0.05292737 0 0 1 0.0859,0.0414 v 0.63113 0.57139 c 0,0.0607 0.0464,0.0934 0.10414,0.075 0.10528,-0.0336 0.27157,-0.0822 0.40876,-0.1017 0.06,-0.008 0.15875,-0.008 0.2186,0.002 0.13772,0.0219 0.30442,0.0737 0.40965,0.10925 0.0574,0.0194 0.1035,-0.0126 0.1035,-0.0732 v -0.36281 -0.8508 a 0.05292737,0.05292737 0 0 1 0.0859,-0.0414 z" />
    </clipPath>
  </defs>
  <metadata
     id="metadata5">
    <rdf:RDF>
      <cc:Work
         rdf:about="">
        <dc:format>image/svg+xml</dc:format>
        <dc:type
           rdf:resource="http://purl.org/dc/dcmitype/StillImage" />
        <dc:title></dc:title>
      </cc:Work>
    </rdf:RDF>
  </metadata>
  <g
     id="g875"
     transform="matrix(4.0501855,0,0,4.1394259,-0.11705176,-0.36433881)"
     style="stroke-width:0.976065">
    <path
       id="path833"
       style="fill:#666666;stroke:#333333;stroke-width:0.55336;stroke-miterlimit:4;stroke-dasharray:none"
       d="M 9.3945312,0.609375 C 7.262022,0.62066198 6.0632103,1.2163718 4.4003906,2.484375 4.0893303,2.7215759 3.792906,2.9885363 3.5058594,3.2675781 4.7499071,5.6937338 3.2244454,6.935596 1.6113281,5.640625 0.93208705,6.6673427 0.55033583,7.8592293 0.41601562,9.4492188 0.19378476,12.079907 1.2292444,15.028739 3.0859375,16.916016 c 1.3493521,-0.747139 3.4509663,-0.696267 2.4511719,1.177734 -0.027182,0.04966 -0.064903,0.09502 -0.09375,0.144531 2.3578814,1.115163 5.3953496,2.125954 7.8007816,1.808594 1.764009,-0.312267 2.928454,-1.349923 3.845703,-2.71875 -0.2877,-0.336839 -0.577242,-0.716172 -0.863282,-1.1875 -0.178449,-0.788673 0.894308,-0.998464 1.910157,-0.71875 0.142135,-0.291635 0.292108,-0.568574 0.429687,-0.869141 1.039843,-2.271732 1.924247,-5.3022651 1.732422,-7.9609371 -0.486101,0.1418803 -0.971681,0.109477 -1.353516,-0.2207031 -0.788589,-0.8676591 -0.152937,-1.7175185 0.771485,-2.25 C 19.567709,3.7825306 19.396432,3.4564886 19.183594,3.1542969 17.60704,0.91587156 14.001757,0.73719596 11.898438,0.69921875 10.522303,0.67437153 9.6991756,0.60776257 9.3945312,0.609375 Z"
       transform="scale(0.26458333)" />
    <path
       id="circle1033"
       style="fill:#4d4d4d;stroke:#333333;stroke-width:0.14641;stroke-miterlimit:4;stroke-dasharray:none"
       d="M 2.9356904,4.4210328 C 2.6350299,4.4012592 2.3160469,4.1895235 2.3362233,3.8827232 2.3563998,3.575921 2.4964118,3.4578173 2.7970824,3.4775895 c 0.6453212,0.1632021 0.740703,0.9579633 0.138608,0.9434433 z" />
    <path
       id="path1042"
       style="fill:#4d4d4d;stroke:#333333;stroke-width:0.14641;stroke-miterlimit:4;stroke-dasharray:none"
       d="M 4.1999632,0.59121715 C 4.4813365,1.4374462 3.5690952,1.6909472 3.3971882,0.90011718 3.3195282,0.47669715 4.0716912,0.33969715 4.1999632,0.59121715 Z" />
    <path
       id="path1044"
       style="fill:#4d4d4d;stroke:#333333;stroke-width:0.14641;stroke-miterlimit:4;stroke-dasharray:none"
       d="M 1.0559533,2.7549288 C 0.75359746,2.7669824 0.26502474,3.7715891 0.86753936,3.8417826 1.3711062,3.839695 1.4423707,2.7503874 1.0559533,2.7549288 Z" />
    <path
       id="path1048"
       style="fill:#4d4d4d;stroke:#333333;stroke-width:0.14641;stroke-miterlimit:4;stroke-dasharray:none"
       d="M 2.91859,1.7639647 C 3.9810758,2.258494 1.9924263,3.1872062 2.3287187,2.2513932 2.4358058,1.9631807 2.6361833,1.6590358 2.91859,1.7639647 Z" />
    <path
       id="path1050"
       style="fill:#4d4d4d;stroke:#333333;stroke-width:0.14641;stroke-miterlimit:4;stroke-dasharray:none"
       d="M 4.2347401,3.5500032 C 3.6094657,3.5227797 3.7739399,3.0002666 4.6348768,2.661485 5.021928,2.6413581 4.7449926,3.6117072 4.2347401,3.5500032 Z" />
    <path
       id="path866"
       style="fill:#4d4d4d;stroke:#333333;stroke-width:0.14641;stroke-miterlimit:4;stroke-dasharray:none"
       d="M 2.6397425,0.72946576 C 2.7161372,1.1748443 1.7316902,1.4063796 1.6786222,1.0890756 1.5689792,0.77155744 2.5633478,0.28408725 2.6397425,0.72946576 Z" />
  </g>
</svg>
