<?xml version="1.0" encoding="UTF-8" standalone="no"?>
<svg
   xmlns:dc="http://purl.org/dc/elements/1.1/"
   xmlns:cc="http://creativecommons.org/ns#"
   xmlns:rdf="http://www.w3.org/1999/02/22-rdf-syntax-ns#"
   xmlns:svg="http://www.w3.org/2000/svg"
   xmlns="http://www.w3.org/2000/svg"
   width="21.960421mm"
   height="21.960474mm"
   viewBox="0 0 21.960421 21.960474"
   version="1.1"
   id="svg8">
  <defs
     id="defs2">
    <clipPath
       clipPathUnits="userSpaceOnUse"
       id="clipPath1517">
      <path
         id="path1519"
         style="opacity:1;fill:#aa0000;fill-opacity:0.994177;stroke:#1a1a1a;stroke-width:0.153458;stroke-linecap:butt;stroke-linejoin:miter;stroke-miterlimit:4;stroke-dasharray:none;stroke-opacity:1"
         d="m -54.046513,106.38622 0.89618,0.71392 a 0.22791817,0.22791817 0 0 1 0.0859,0.17827 v 1.09554 a 0.99790766,0.99790766 0 0 0 0.16306,0.54667 l 0.12414,0.18958 a 1.2502196,1.2502196 0 0 0 0.42085,0.39784 l 1.39483,0.80526 a 0.28173,0.28173 0 0 1 0.13526,0.29995 l -0.0784,0.38681 a 0.27543694,0.27543694 0 0 1 -0.24186,0.21929 l -2.52239,0.25859 a 0.32849307,0.32849307 0 0 0 -0.27357,0.21012 l -0.0851,0.22397 a 0.29378643,0.29378643 0 0 1 -0.27464,0.18945 h -0.95655 a 0.29376695,0.29376695 0 0 1 -0.27463,-0.18945 l -0.0871,-0.22938 a 0.32847769,0.32847769 0 0 0 -0.27357,-0.21013 l -2.469,-0.25316 a 0.27544252,0.27544252 0 0 1 -0.24186,-0.2193 l -0.0784,-0.38681 a 0.28172137,0.28172137 0 0 1 0.13526,-0.29995 l 1.39496,-0.80527 a 1.250137,1.250137 0 0 0 0.42085,-0.39783 l 0.12414,-0.18958 a 0.99790766,0.99790766 0 0 0 0.16306,-0.54667 v -1.09554 a 0.22791817,0.22791817 0 0 1 0.0859,-0.17827 l 0.89618,-0.71392 a 0.05292737,0.05292737 0 0 1 0.0859,0.0414 v 0.63113 0.57139 c 0,0.0607 0.0464,0.0934 0.10414,0.075 0.10528,-0.0336 0.27157,-0.0822 0.40876,-0.1017 0.06,-0.008 0.15875,-0.008 0.2186,0.002 0.13772,0.0219 0.30442,0.0737 0.40965,0.10925 0.0574,0.0194 0.1035,-0.0126 0.1035,-0.0732 v -0.36281 -0.8508 a 0.05292737,0.05292737 0 0 1 0.0859,-0.0414 z" />
    </clipPath>
  </defs>
  <metadata
     id="metadata5">
    <rdf:RDF>
      <cc:Work
         rdf:about="">
        <dc:format>image/svg+xml</dc:format>
        <dc:type
           rdf:resource="http://purl.org/dc/dcmitype/StillImage" />
        <dc:title></dc:title>
      </cc:Work>
    </rdf:RDF>
  </metadata>
  <g
     id="layer1"
     transform="matrix(3.9901983,0,0,4.0027926,-240.11435,-462.89573)">
    <path
       id="path833"
       style="fill:#666666;stroke:#333333;stroke-width:0.15;stroke-miterlimit:4;stroke-dasharray:none"
       d="m 63.269932,115.72913 c 0.407546,0.0404 1.635649,0.60912 1.925963,0.90437 0.290312,0.29525 0.391503,0.62013 0.326304,0.98229 -0.278818,-5.3e-4 -1.057982,0.35777 0.07292,0.80531 0,0 -0.141435,0.79961 -0.293259,1.14257 -0.305738,0.69065 -1.027097,1.29807 -1.783298,1.43067 -0.177368,0.0312 -0.394851,0.14444 -0.521387,-0.0538 0.04585,-0.57686 -0.785455,-0.43887 -0.91758,-0.12079 -0.317248,0.0714 -0.768731,-0.38896 -1.057818,-0.66869 -0.151508,-0.14659 -0.515023,-0.42944 -0.400785,-0.50863 0.235329,-0.0759 0.403673,-0.1717 0.36064,-0.41932 -0.04304,-0.24761 -0.37572,-0.4412 -0.654413,-0.28763 -0.10582,0.0769 -0.08311,-0.5355 -0.04086,-0.79239 0.13503,-0.82112 0.513833,-1.24597 1.20936,-1.72259 0.129427,-0.0887 0.516747,-0.55145 0.585589,-0.38341 0.261376,0.45848 0.784692,0.31965 0.586407,-0.19164 -0.06343,-0.0956 0.187024,-0.15188 0.602224,-0.11628 z" />
    <path
       id="circle1033"
       style="fill:#4d4d4d;stroke:#333333;stroke-width:0.15;stroke-miterlimit:4;stroke-dasharray:none"
       d="m 64.649162,119.568 c -10e-7,0.30131 -0.190348,0.6335 -0.497811,0.6335 -0.307465,0 -0.434502,-0.13196 -0.434503,-0.43328 0.120503,-0.65464 0.907292,-0.80197 0.932314,-0.20022 z" />
    <path
       id="path1042"
       style="fill:#4d4d4d;stroke:#333333;stroke-width:0.15;stroke-miterlimit:4;stroke-dasharray:none"
       d="m 61.852924,117.00446 c 0.281375,1.28253 -0.630868,1.09973 -0.802775,0.3089 -0.07766,-0.42342 0.674503,-0.56042 0.802775,-0.3089 z" />
    <path
       id="path1044"
       style="fill:#4d4d4d;stroke:#333333;stroke-width:0.15;stroke-miterlimit:4;stroke-dasharray:none"
       d="m 61.372875,119.42667 c 0.139677,-0.26843 0.690472,-0.53223 0.933371,0.23111 0.333759,0.4639 -1.264137,0.43339 -0.933371,-0.23111 z" />
    <path
       id="path1048"
       style="fill:#4d4d4d;stroke:#333333;stroke-width:0.15;stroke-miterlimit:4;stroke-dasharray:none"
       d="m 64.475135,116.67146 c -0.09351,1.1682 -1.656702,-0.37247 -0.662356,-0.38317 0.307464,0 0.662355,0.0819 0.662356,0.38317 z" />
    <path
       id="path1050"
       style="fill:#4d4d4d;stroke:#333333;stroke-width:0.15;stroke-miterlimit:4;stroke-dasharray:none"
       d="m 63.457885,118.61525 c -0.897191,-0.51533 0.816575,-1.28435 0.65752,-0.52552 -0.187746,0.24752 -0.438072,0.54708 -0.65752,0.52552 z" />
  </g>
</svg>
