<?xml version="1.0" encoding="UTF-8" standalone="no"?>
<!-- Created with Inkscape (http://www.inkscape.org/) -->

<svg width="31.999998" height="31.999998" viewBox="0 0 8.466666 8.4666661" version="1.1" id="svg1" inkscape:version="1.3.2 (091e20ef0f, 2023-11-25, custom)" xml:space="preserve" sodipodi:docname="particle.svg" xmlns:inkscape="http://www.inkscape.org/namespaces/inkscape" xmlns:sodipodi="http://sodipodi.sourceforge.net/DTD/sodipodi-0.dtd" xmlns:xlink="http://www.w3.org/1999/xlink" xmlns="http://www.w3.org/2000/svg" xmlns:svg="http://www.w3.org/2000/svg"><sodipodi:namedview id="namedview1" pagecolor="#c3c3c3" bordercolor="#000000" borderopacity="0.25" inkscape:showpageshadow="2" inkscape:pageopacity="0.0" inkscape:pagecheckerboard="true" inkscape:deskcolor="#767676" inkscape:document-units="px" inkscape:zoom="18.102133" inkscape:cx="12.208506" inkscape:cy="17.926064" inkscape:current-layer="layer1" /><defs id="defs1"><linearGradient id="linearGradient1" inkscape:collect="always"><stop style="stop-color:#ffffff;stop-opacity:1;" offset="0" id="stop1" /><stop style="stop-color:#ffffff;stop-opacity:0;" offset="1" id="stop2" /></linearGradient><clipPath clipPathUnits="userSpaceOnUse" id="clipPath1517"><path id="path1519" style="opacity:1;fill:#aa0000;fill-opacity:0.994177;stroke:#1a1a1a;stroke-width:0.153458;stroke-linecap:butt;stroke-linejoin:miter;stroke-miterlimit:4;stroke-dasharray:none;stroke-opacity:1" d="m -54.046513,106.38622 0.89618,0.71392 a 0.22791817,0.22791817 0 0 1 0.0859,0.17827 v 1.09554 a 0.99790766,0.99790766 0 0 0 0.16306,0.54667 l 0.12414,0.18958 a 1.2502196,1.2502196 0 0 0 0.42085,0.39784 l 1.39483,0.80526 a 0.28173,0.28173 0 0 1 0.13526,0.29995 l -0.0784,0.38681 a 0.27543694,0.27543694 0 0 1 -0.24186,0.21929 l -2.52239,0.25859 a 0.32849307,0.32849307 0 0 0 -0.27357,0.21012 l -0.0851,0.22397 a 0.29378643,0.29378643 0 0 1 -0.27464,0.18945 h -0.95655 a 0.29376695,0.29376695 0 0 1 -0.27463,-0.18945 l -0.0871,-0.22938 a 0.32847769,0.32847769 0 0 0 -0.27357,-0.21013 l -2.469,-0.25316 a 0.27544252,0.27544252 0 0 1 -0.24186,-0.2193 l -0.0784,-0.38681 a 0.28172137,0.28172137 0 0 1 0.13526,-0.29995 l 1.39496,-0.80527 a 1.250137,1.250137 0 0 0 0.42085,-0.39783 l 0.12414,-0.18958 a 0.99790766,0.99790766 0 0 0 0.16306,-0.54667 v -1.09554 a 0.22791817,0.22791817 0 0 1 0.0859,-0.17827 l 0.89618,-0.71392 a 0.05292737,0.05292737 0 0 1 0.0859,0.0414 v 0.63113 0.57139 c 0,0.0607 0.0464,0.0934 0.10414,0.075 0.10528,-0.0336 0.27157,-0.0822 0.40876,-0.1017 0.06,-0.008 0.15875,-0.008 0.2186,0.002 0.13772,0.0219 0.30442,0.0737 0.40965,0.10925 0.0574,0.0194 0.1035,-0.0126 0.1035,-0.0732 v -0.36281 -0.8508 a 0.05292737,0.05292737 0 0 1 0.0859,-0.0414 z" /></clipPath><radialGradient inkscape:collect="always" xlink:href="#linearGradient1" id="radialGradient2" cx="76.027817" cy="152.4895" fx="76.027817" fy="152.4895" r="4.2333331" gradientUnits="userSpaceOnUse" /></defs><g inkscape:label="Layer 1" inkscape:groupmode="layer" id="layer1" transform="translate(-71.794484,-148.25617)"><circle style="fill:url(#radialGradient2);stroke-width:4.23333;stroke-linejoin:round;paint-order:stroke fill markers" id="path1" cx="76.027817" cy="152.4895" r="4.2333331" /></g></svg>
