<?xml version="1.0" encoding="UTF-8" standalone="no"?>
<svg
   xmlns:dc="http://purl.org/dc/elements/1.1/"
   xmlns:cc="http://creativecommons.org/ns#"
   xmlns:rdf="http://www.w3.org/1999/02/22-rdf-syntax-ns#"
   xmlns:svg="http://www.w3.org/2000/svg"
   xmlns="http://www.w3.org/2000/svg"
   width="30.691668mm"
   height="30.668381mm"
   viewBox="0 0 30.691668 30.668381"
   version="1.1"
   id="svg8">
  <defs
     id="defs2">
    <clipPath
       clipPathUnits="userSpaceOnUse"
       id="clipPath1517">
      <path
         id="path1519"
         style="opacity:1;fill:#aa0000;fill-opacity:0.994177;stroke:#1a1a1a;stroke-width:0.153458;stroke-linecap:butt;stroke-linejoin:miter;stroke-miterlimit:4;stroke-dasharray:none;stroke-opacity:1"
         d="m -54.046513,106.38622 0.89618,0.71392 a 0.22791817,0.22791817 0 0 1 0.0859,0.17827 v 1.09554 a 0.99790766,0.99790766 0 0 0 0.16306,0.54667 l 0.12414,0.18958 a 1.2502196,1.2502196 0 0 0 0.42085,0.39784 l 1.39483,0.80526 a 0.28173,0.28173 0 0 1 0.13526,0.29995 l -0.0784,0.38681 a 0.27543694,0.27543694 0 0 1 -0.24186,0.21929 l -2.52239,0.25859 a 0.32849307,0.32849307 0 0 0 -0.27357,0.21012 l -0.0851,0.22397 a 0.29378643,0.29378643 0 0 1 -0.27464,0.18945 h -0.95655 a 0.29376695,0.29376695 0 0 1 -0.27463,-0.18945 l -0.0871,-0.22938 a 0.32847769,0.32847769 0 0 0 -0.27357,-0.21013 l -2.469,-0.25316 a 0.27544252,0.27544252 0 0 1 -0.24186,-0.2193 l -0.0784,-0.38681 a 0.28172137,0.28172137 0 0 1 0.13526,-0.29995 l 1.39496,-0.80527 a 1.250137,1.250137 0 0 0 0.42085,-0.39783 l 0.12414,-0.18958 a 0.99790766,0.99790766 0 0 0 0.16306,-0.54667 v -1.09554 a 0.22791817,0.22791817 0 0 1 0.0859,-0.17827 l 0.89618,-0.71392 a 0.05292737,0.05292737 0 0 1 0.0859,0.0414 v 0.63113 0.57139 c 0,0.0607 0.0464,0.0934 0.10414,0.075 0.10528,-0.0336 0.27157,-0.0822 0.40876,-0.1017 0.06,-0.008 0.15875,-0.008 0.2186,0.002 0.13772,0.0219 0.30442,0.0737 0.40965,0.10925 0.0574,0.0194 0.1035,-0.0126 0.1035,-0.0732 v -0.36281 -0.8508 a 0.05292737,0.05292737 0 0 1 0.0859,-0.0414 z" />
    </clipPath>
  </defs>
  <metadata
     id="metadata5">
    <rdf:RDF>
      <cc:Work
         rdf:about="">
        <dc:format>image/svg+xml</dc:format>
        <dc:type
           rdf:resource="http://purl.org/dc/dcmitype/StillImage" />
        <dc:title></dc:title>
      </cc:Work>
    </rdf:RDF>
  </metadata>
  <g
     id="layer1"
     transform="matrix(0.26458334,0,0,0.264371,15.502982,-28.015281)"
     style="display:inline">
    <circle
       style="opacity:0.5;fill:#00ff00;fill-opacity:1;stroke:none;stroke-width:4.31683;stroke-miterlimit:4;stroke-dasharray:none;stroke-opacity:1"
       id="circle1447"
       cx="164.01938"
       cy="1.7572457"
       transform="rotate(90)"
       r="29.978014" />
    <rect
       style="opacity:0;fill:#d40000;fill-opacity:1;stroke-width:4.31683"
       id="rect1449"
       width="116"
       height="116.00002"
       x="-58.593945"
       y="106.01858" />
    <rect
       style="fill:#5f0000;fill-opacity:1;stroke:#1a1a1a;stroke-width:2.31829;stroke-miterlimit:4;stroke-dasharray:none;stroke-opacity:1;paint-order:normal"
       id="rect1501"
       width="11.519058"
       height="32.668217"
       x="-210.9505"
       y="-7.6499004"
       rx="5.7595291"
       ry="5.7595291"
       transform="rotate(-90)" />
    <rect
       style="fill:#5f0000;fill-opacity:1;stroke:#1a1a1a;stroke-width:2.31829;stroke-miterlimit:4;stroke-dasharray:none;stroke-opacity:1;paint-order:normal"
       id="rect1503"
       width="11.519058"
       height="32.668217"
       x="-128.60571"
       y="-7.6499004"
       rx="5.7595291"
       ry="5.7595291"
       transform="rotate(-90)" />
    <path
       id="path1451"
       style="opacity:1;fill:#c73838;fill-opacity:1;stroke:#1a1a1a;stroke-width:2.31829;stroke-linecap:butt;stroke-linejoin:miter;stroke-miterlimit:4;stroke-dasharray:none;stroke-opacity:1"
       d="m -50.127412,174.26091 10.319461,12.95745 c 0.625431,0.78557 1.574606,1.24029 2.578015,1.24029 H -21.3881 c 2.808397,0 5.556668,0.82333 7.905963,2.36123 l 2.742379,1.79351 c 2.3674228,1.55028 4.3396457,3.63173 5.7538148,6.08254 L 6.65629,218.87182 c 0.8746971,1.51629 2.6181995,2.29808 4.334056,1.95032 l 5.597004,-1.1285 c 1.708454,-0.34595 2.990436,-1.76299 3.168397,-3.49712 l 3.661491,-35.70381 c 0.182795,-1.78716 1.361144,-3.31508 3.041348,-3.9529 l 3.317806,-1.26295 c 1.649083,-0.62694 2.734977,-2.20381 2.734977,-3.96801 V 157.4773 c 0,-1.7642 -1.086196,-3.34892 -2.734977,-3.97541 l -3.243178,-1.23274 c -1.678995,-0.63751 -2.850092,-2.16589 -3.033793,-3.95305 l -3.743674,-36.47336 c -0.178263,-1.73414 -1.459339,-3.15102 -3.168397,-3.49713 l -5.597004,-1.13604 c -1.7158565,-0.34747 -3.4592079,0.44112 -4.334056,1.95772 l -11.6422332,20.16833 c -1.4155287,2.45097 -3.386392,4.53242 -5.7538148,6.0827 l -2.742379,1.80091 c -2.349295,1.53835 -5.097566,2.35382 -7.905963,2.35382 h -15.841836 c -1.003107,0 -1.951828,0.45624 -2.578015,1.24029 l -10.319461,12.96486 c -0.182796,0.18732 -0.244734,0.86261 0.105749,1.13604 0.120856,0.0906 0.274948,0.13597 0.494,0.10575 h 12.307244 5.245766 c 0.876207,0 1.33395,0.66471 1.05296,1.49409 -0.513639,1.52158 -1.259927,3.93417 -1.576721,5.92573 -0.15107,0.86563 -0.15107,2.29325 -0.03021,3.16085 0.282501,1.98385 0.986489,4.38844 1.471425,5.91077 0.265883,0.83542 -0.205456,1.50919 -1.083174,1.50919 h -8.264604 -9.123891 c -0.96549,-0.21149 -0.745985,0.72514 -0.59854,1.24029 z" />
    <path
       id="path1453"
       style="opacity:1;fill:#1a1a1a;fill-opacity:0.713363;stroke:#1a1a1a;stroke-width:2.31829;stroke-miterlimit:4;stroke-dasharray:none;stroke-opacity:1;paint-order:normal"
       d="M -13.935801,174.34415 A 18.167362,10.324583 0 0 0 4.2314605,164.0194 18.167362,10.324583 0 0 0 -13.935801,153.6948 a 18.167362,10.324583 0 0 0 -18.167413,10.3246 18.167362,10.324583 0 0 0 18.167413,10.32475 z" />
    <path
       id="path879"
       style="opacity:1;fill:none;fill-opacity:0;stroke:#1a1a1a;stroke-width:2.31829;stroke-linecap:butt;stroke-linejoin:miter;stroke-miterlimit:4;stroke-dasharray:none;stroke-opacity:1"
       d="m -21.3881,139.57305 h -15.841836 c -1.003107,0 -1.951828,0.45624 -2.578015,1.24029 l -10.319461,12.96486 c -0.182796,0.18732 -0.244734,0.86261 0.105749,1.13604 0.120856,0.0906 0.274948,0.13597 0.494,0.10575 h 12.307244 5.245766 c 0.876207,0 1.33395,0.66471 1.05296,1.49409 z" />
    <path
       style="fill:#1a1a1a;fill-opacity:1;stroke:#1a1a1a;stroke-width:2.31829;stroke-linecap:butt;stroke-linejoin:miter;stroke-miterlimit:4;stroke-dasharray:none;stroke-opacity:1"
       d="m -31.058261,171.51098 9.671068,16.95009"
       id="path1489" />
    <path
       id="path1550"
       style="opacity:1;fill:#000000;fill-opacity:0.5;stroke:#1a1a1a;stroke-width:2.31829;stroke-linecap:butt;stroke-linejoin:miter;stroke-miterlimit:4;stroke-dasharray:none;stroke-opacity:1"
       d="m -10.739909,192.61354 c 2.3674228,1.55028 4.3396456,3.63188 5.7538148,6.08269 l 11.6422331,20.17574 c 0.8746971,1.51645 2.6181995,2.29824 4.3340561,1.95047 l 5.597004,-1.12849 c 1.708454,-0.34595 2.990436,-1.76314 3.168397,-3.49728 l 3.661491,-35.70365 z" />
    <path
       id="path1553"
       style="opacity:1;fill:#000000;fill-opacity:0.5;stroke:#1a1a1a;stroke-width:2.31829;stroke-linecap:butt;stroke-linejoin:miter;stroke-miterlimit:4;stroke-dasharray:none;stroke-opacity:1"
       d="m -10.739909,135.41877 c 2.3674228,-1.55043 4.3396456,-3.63188 5.7538148,-6.08269 l 11.6422331,-20.1759 c 0.8746971,-1.51629 2.6181995,-2.29808 4.3340561,-1.95031 l 5.597004,1.12849 c 1.708454,0.34595 2.990436,1.76299 3.168246,3.49713 l 3.661642,35.7038 z" />
    <path
       id="path1537"
       style="opacity:1;fill:#000000;fill-opacity:0.5;stroke:#1a1a1a;stroke-width:2.31829;stroke-linecap:butt;stroke-linejoin:miter;stroke-miterlimit:4;stroke-dasharray:none;stroke-opacity:1"
       d="m 23.417087,180.49317 c 0.163156,-1.96437 1.684132,-3.6204 3.552116,-4.14749 1.26597,-0.5363 2.635875,-0.86714 3.802893,-1.60799 1.315823,-0.91246 1.870704,-2.56215 1.73897,-4.11168 -0.0083,-4.49223 0.0145,-8.98506 -0.01254,-13.47683 -0.10575,-1.8207 -1.504661,-3.36706 -3.233358,-3.84112 -1.284098,-0.54385 -2.675002,-0.87167 -3.847157,-1.64349 -1.018213,-0.73873 -1.71359,-1.89336 -1.892306,-3.13728 0,0 3.474919,10.53217 3.457244,15.98294 -0.0145,5.45862 -3.565864,15.98294 -3.565864,15.98294 z" />
    <path
       id="path884"
       style="opacity:1;fill:none;fill-opacity:0;stroke:#1a1a1a;stroke-width:2.31829;stroke-linecap:butt;stroke-linejoin:miter;stroke-miterlimit:4;stroke-dasharray:none;stroke-opacity:1"
       d="m -21.3881,188.45865 h -15.841836 c -1.003107,0 -1.951828,-0.45623 -2.578015,-1.24029 l -10.319461,-12.96485 c -0.182796,-0.18733 -0.244734,-0.86261 0.105749,-1.13605 0.120856,-0.0906 0.274948,-0.13596 0.494,-0.10575 h 12.307244 5.245766 c 0.876207,0 1.33395,-0.66471 1.05296,-1.49408 z" />
  </g>
</svg>
