<?xml version="1.0" encoding="UTF-8" standalone="no"?>
<svg
   xmlns:dc="http://purl.org/dc/elements/1.1/"
   xmlns:cc="http://creativecommons.org/ns#"
   xmlns:rdf="http://www.w3.org/1999/02/22-rdf-syntax-ns#"
   xmlns:svg="http://www.w3.org/2000/svg"
   xmlns="http://www.w3.org/2000/svg"
   xmlns:sodipodi="http://sodipodi.sourceforge.net/DTD/sodipodi-0.dtd"
   xmlns:inkscape="http://www.inkscape.org/namespaces/inkscape"
   width="4.2333331mm"
   height="4.2333331mm"
   viewBox="0 0 4.2333331 4.2333331"
   version="1.1"
   id="svg8"
   inkscape:version="1.0.1 (1.0.1+r74)"
   sodipodi:docname="icon.svg"
   inkscape:export-filename="/home/leo/Desktop/programação/js/multiplayer game/public/assets/icon.png"
   inkscape:export-xdpi="96"
   inkscape:export-ydpi="96">
  <defs
     id="defs2">
    <inkscape:path-effect
       effect="fillet_chamfer"
       id="path-effect892"
       is_visible="true"
       lpeversion="1"
       satellites_param="F,0,1,1,0,1.70368,0,1 @ F,0,1,1,0,1.70368,0,1 @ F,0,0,1,0,4.6171701,0,1 @ F,0,0,1,0,4.6171701,0,1 @ F,0,0,1,0,3.1436135,0,1 @ F,0,0,1,0,3.1436135,0,1 @ F,0,0,1,0,3.1436135,0,1 @ F,0,0,1,0,3.1436135,0,1 @ F,0,0,1,0,3.1436135,0,1 @ F,0,0,1,0,3.1436135,0,1 @ F,0,0,1,0,3.1436135,0,1 @ F,0,0,1,0,3.1436135,0,1 @ F,0,0,1,0,4.6171701,0,1 @ F,0,0,1,0,4.6171701,0,1 @ F,0,1,1,0,1.70368,0,1 @ F,0,1,1,0,1.70368,0,1 @ F,0,1,1,0,1.70368,0,1 @ F,0,0,1,0,1.70368,0,1 @ F,0,1,1,0,1.70368,0,1 @ F,0,1,1,0,1.70368,0,1 @ F,0,1,1,0,1.70368,0,1"
       unit="px"
       method="auto"
       mode="F"
       radius="0"
       chamfer_steps="1"
       flexible="false"
       use_knot_distance="true"
       apply_no_radius="true"
       apply_with_radius="true"
       only_selected="false"
       hide_knots="false" />
    <inkscape:path-effect
       effect="fillet_chamfer"
       id="path-effect884"
       is_visible="true"
       lpeversion="1"
       satellites_param="F,0,1,1,0,1.70368,0,1 @ F,0,1,1,0,1.70368,0,1 @ F,0,0,1,0,4.6171701,0,1 @ F,0,0,1,0,4.6171701,0,1 @ F,0,0,1,0,3.1436135,0,1 @ F,0,0,1,0,3.1436135,0,1 @ F,0,0,1,0,3.1436135,0,1 @ F,0,0,1,0,3.1436135,0,1 @ F,0,0,1,0,3.1436135,0,1 @ F,0,0,1,0,3.1436135,0,1 @ F,0,0,1,0,3.1436135,0,1 @ F,0,0,1,0,3.1436135,0,1 @ F,0,0,1,0,4.6171701,0,1 @ F,0,0,1,0,4.6171701,0,1 @ F,0,1,1,0,1.70368,0,1 @ F,0,1,1,0,1.70368,0,1 @ F,0,1,1,0,1.70368,0,1 @ F,0,0,1,0,1.70368,0,1 @ F,0,1,1,0,1.70368,0,1 @ F,0,1,1,0,1.70368,0,1 @ F,0,1,1,0,1.70368,0,1"
       unit="px"
       method="auto"
       mode="F"
       radius="0"
       chamfer_steps="1"
       flexible="false"
       use_knot_distance="true"
       apply_no_radius="true"
       apply_with_radius="true"
       only_selected="false"
       hide_knots="false" />
    <inkscape:path-effect
       effect="fillet_chamfer"
       id="path-effect872"
       is_visible="true"
       lpeversion="1"
       satellites_param="F,0,1,1,0,0,0,1 @ F,0,0,1,0,0,0,1 @ F,0,0,1,0,0,0,1 @ F,0,0,1,0,0,0,1 @ F,0,0,1,0,0,0,1 @ F,0,0,1,0,0,0,1 @ F,0,0,1,0,0.14144937,0,1 @ F,0,0,1,0,0,0,1 @ F,0,0,1,0,0,0,1 @ F,0,0,1,0,0.1414,0,1 @ F,0,0,1,0,0,0,1 @ F,0,0,1,0,0,0,1 @ F,0,0,1,0,0,0,1 @ F,0,0,1,0,0,0,1 @ F,0,0,1,0,0,0,1 @ F,0,1,1,0,0,0,1 @ F,0,0,1,0,0,0,1 @ F,0,1,1,0,0,0,1 @ F,0,1,1,0,0,0,1"
       unit="px"
       method="auto"
       mode="F"
       radius="0"
       chamfer_steps="1"
       flexible="false"
       use_knot_distance="true"
       apply_no_radius="true"
       apply_with_radius="true"
       only_selected="false"
       hide_knots="false" />
    <inkscape:path-effect
       effect="fillet_chamfer"
       id="path-effect870"
       is_visible="true"
       lpeversion="1"
       satellites_param="F,0,0,1,0,0.23140189,0,1 @ F,0,0,1,0,0.10501246,0,1 @ F,0,0,1,0,0.10099826,0,1 @ F,0,1,1,0,0.16850676,0,1 @ F,0,0,1,0,0,0,1 @ F,0,0,1,0,0,0,1 @ F,0,0,1,0,0,0,1 @ F,0,0,1,0,0,0,1 @ F,0,0,1,0,0.16850676,0,1 @ F,0,0,1,0,0.10099826,0,1 @ F,0,0,1,0,0.10501246,0,1 @ F,0,0,1,0,0.23140189,0,1"
       unit="px"
       method="auto"
       mode="F"
       radius="0"
       chamfer_steps="1"
       flexible="false"
       use_knot_distance="true"
       apply_no_radius="true"
       apply_with_radius="true"
       only_selected="false"
       hide_knots="false" />
    <inkscape:path-effect
       effect="fillet_chamfer"
       id="path-effect863"
       is_visible="true"
       lpeversion="1"
       satellites_param="F,0,1,1,0,0.56639697,0,1 @ F,0,0,1,0,0,0,1 @ F,0,0,1,0,0.56639697,0,1 @ F,0,0,1,0,0,0,1"
       unit="px"
       method="auto"
       mode="F"
       radius="0"
       chamfer_steps="1"
       flexible="false"
       use_knot_distance="true"
       apply_no_radius="true"
       apply_with_radius="true"
       only_selected="false"
       hide_knots="false" />
    <inkscape:path-effect
       effect="fillet_chamfer"
       id="path-effect1105"
       is_visible="true"
       lpeversion="1"
       satellites_param="F,0,1,1,0,1.70368,0,1 @ F,0,1,1,0,1.70368,0,1 @ F,0,0,1,0,4.6171701,0,1 @ F,0,0,1,0,4.6171701,0,1 @ F,0,0,1,0,3.1436135,0,1 @ F,0,0,1,0,3.1436135,0,1 @ F,0,0,1,0,3.1436135,0,1 @ F,0,0,1,0,3.1436135,0,1 @ F,0,0,1,0,3.1436135,0,1 @ F,0,0,1,0,3.1436135,0,1 @ F,0,0,1,0,3.1436135,0,1 @ F,0,0,1,0,3.1436135,0,1 @ F,0,0,1,0,4.6171701,0,1 @ F,0,0,1,0,4.6171701,0,1 @ F,0,1,1,0,1.70368,0,1 @ F,0,1,1,0,1.70368,0,1 @ F,0,1,1,0,1.70368,0,1 @ F,0,0,1,0,1.70368,0,1 @ F,0,1,1,0,1.70368,0,1 @ F,0,1,1,0,1.70368,0,1 @ F,0,1,1,0,1.70368,0,1"
       unit="px"
       method="auto"
       mode="F"
       radius="0"
       chamfer_steps="1"
       flexible="false"
       use_knot_distance="true"
       apply_no_radius="true"
       apply_with_radius="true"
       only_selected="false"
       hide_knots="false" />
    <clipPath
       clipPathUnits="userSpaceOnUse"
       id="clipPath1517">
      <path
         id="path1519"
         style="opacity:1;fill:#aa0000;fill-opacity:0.994177;stroke:#1a1a1a;stroke-width:0.153458;stroke-linecap:butt;stroke-linejoin:miter;stroke-miterlimit:4;stroke-dasharray:none;stroke-opacity:1"
         d="m -54.046513,106.38622 0.89618,0.71392 a 0.22791817,0.22791817 0 0 1 0.0859,0.17827 v 1.09554 a 0.99790766,0.99790766 0 0 0 0.16306,0.54667 l 0.12414,0.18958 a 1.2502196,1.2502196 0 0 0 0.42085,0.39784 l 1.39483,0.80526 a 0.28173,0.28173 0 0 1 0.13526,0.29995 l -0.0784,0.38681 a 0.27543694,0.27543694 0 0 1 -0.24186,0.21929 l -2.52239,0.25859 a 0.32849307,0.32849307 0 0 0 -0.27357,0.21012 l -0.0851,0.22397 a 0.29378643,0.29378643 0 0 1 -0.27464,0.18945 h -0.95655 a 0.29376695,0.29376695 0 0 1 -0.27463,-0.18945 l -0.0871,-0.22938 a 0.32847769,0.32847769 0 0 0 -0.27357,-0.21013 l -2.469,-0.25316 a 0.27544252,0.27544252 0 0 1 -0.24186,-0.2193 l -0.0784,-0.38681 a 0.28172137,0.28172137 0 0 1 0.13526,-0.29995 l 1.39496,-0.80527 a 1.250137,1.250137 0 0 0 0.42085,-0.39783 l 0.12414,-0.18958 a 0.99790766,0.99790766 0 0 0 0.16306,-0.54667 v -1.09554 a 0.22791817,0.22791817 0 0 1 0.0859,-0.17827 l 0.89618,-0.71392 a 0.05292737,0.05292737 0 0 1 0.0859,0.0414 v 0.63113 0.57139 c 0,0.0607 0.0464,0.0934 0.10414,0.075 0.10528,-0.0336 0.27157,-0.0822 0.40876,-0.1017 0.06,-0.008 0.15875,-0.008 0.2186,0.002 0.13772,0.0219 0.30442,0.0737 0.40965,0.10925 0.0574,0.0194 0.1035,-0.0126 0.1035,-0.0732 v -0.36281 -0.8508 a 0.05292737,0.05292737 0 0 1 0.0859,-0.0414 z" />
    </clipPath>
  </defs>
  <sodipodi:namedview
     id="base"
     pagecolor="#ffffff"
     bordercolor="#666666"
     borderopacity="1.0"
     inkscape:pageopacity="0.0"
     inkscape:pageshadow="2"
     inkscape:zoom="20.791421"
     inkscape:cx="9.6801125"
     inkscape:cy="7.7765594"
     inkscape:document-units="mm"
     inkscape:current-layer="layer1"
     inkscape:document-rotation="0"
     showgrid="false"
     inkscape:window-width="1360"
     inkscape:window-height="656"
     inkscape:window-x="0"
     inkscape:window-y="27"
     inkscape:window-maximized="1"
     inkscape:snap-global="true"
     inkscape:snap-bbox="true"
     inkscape:snap-bbox-edge-midpoints="true"
     inkscape:snap-bbox-midpoints="true"
     inkscape:bbox-nodes="true"
     inkscape:object-paths="false"
     inkscape:snap-intersection-paths="true"
     inkscape:snap-smooth-nodes="true"
     inkscape:bbox-paths="true"
     inkscape:snap-page="true" />
  <metadata
     id="metadata5">
    <rdf:RDF>
      <cc:Work
         rdf:about="">
        <dc:format>image/svg+xml</dc:format>
        <dc:type
           rdf:resource="http://purl.org/dc/dcmitype/StillImage" />
        <dc:title />
      </cc:Work>
    </rdf:RDF>
  </metadata>
  <g
     inkscape:label="Layer 1"
     inkscape:groupmode="layer"
     id="layer1"
     transform="translate(59.359117,-104.85577)"
     style="display:inline">
    <rect
       style="opacity:0;fill:#d40000;fill-opacity:1;stroke-width:0.111398"
       id="rect1449"
       width="2.9934185"
       height="2.9934189"
       x="33.667702"
       y="114.62075"
       inkscape:export-xdpi="96"
       inkscape:export-ydpi="96"
       transform="rotate(45)" />
    <g
       id="g1617"
       transform="matrix(1.1182884,0,0,1.1182884,5.7517206,-13.953627)">
      <circle
         style="opacity:0.5;fill:#00ff00;fill-opacity:1;stroke:none;stroke-width:0.15754;stroke-miterlimit:4;stroke-dasharray:none;stroke-opacity:1"
         id="circle1447"
         cx="116.29499"
         cy="-36.381454"
         transform="rotate(135)"
         inkscape:export-xdpi="96"
         inkscape:export-ydpi="96"
         r="1.0940253" />
      <rect
         style="fill:#5f0000;fill-opacity:1;stroke:#1a1a1a;stroke-width:0.0846044;stroke-miterlimit:4;stroke-dasharray:none;stroke-opacity:1;paint-order:normal"
         id="rect1501"
         width="0.42037943"
         height="1.1922022"
         x="-118.00769"
         y="36.166409"
         rx="0.21018972"
         ry="0.21018972"
         transform="rotate(-45)" />
      <rect
         style="fill:#5f0000;fill-opacity:1;stroke:#1a1a1a;stroke-width:0.0846044;stroke-miterlimit:4;stroke-dasharray:none;stroke-opacity:1;paint-order:normal"
         id="rect1503"
         width="0.42037943"
         height="1.1922022"
         x="-115.00258"
         y="36.166409"
         rx="0.21018972"
         ry="0.21018972"
         transform="rotate(-45)" />
      <path
         id="path1451"
         style="opacity:1;fill:#c73838;fill-opacity:1;stroke:#1a1a1a;stroke-width:0.0846044;stroke-linecap:butt;stroke-linejoin:miter;stroke-miterlimit:4;stroke-dasharray:none;stroke-opacity:1"
         d="m -58.019882,106.97461 -0.06807,0.60067 c -0.0042,0.0364 0.0086,0.0727 0.03449,0.0986 l 0.408804,0.4088 c 0.07247,0.0725 0.122178,0.16461 0.143063,0.26497 l 0.02452,0.11701 c 0.02107,0.10112 0.01827,0.20571 -0.0085,0.30545 l -0.22021,0.82107 c -0.01653,0.0617 0.0082,0.12689 0.06149,0.16219 l 0.173566,0.1153 c 0.053,0.0352 0.122636,0.0317 0.172002,-0.008 l 1.015832,-0.82686 c 0.05084,-0.0414 0.120675,-0.0504 0.180491,-0.0235 l 0.118214,0.053 c 0.05875,0.0264 0.127428,0.0137 0.172973,-0.0318 l 0.356933,-0.35693 c 0.04554,-0.0455 0.05839,-0.11445 0.032,-0.17316 l -0.05187,-0.11551 c -0.02685,-0.0598 -0.01762,-0.12948 0.02373,-0.1803 l 0.844595,-1.03781 c 0.04016,-0.0494 0.04366,-0.11898 0.0085,-0.17201 l -0.115088,-0.17378 c -0.0353,-0.0533 -0.10065,-0.0779 -0.1624,-0.0613 l -0.820884,0.22002 c -0.09974,0.0267 -0.204341,0.0296 -0.305442,0.008 l -0.117225,-0.0243 c -0.100296,-0.0209 -0.192285,-0.0708 -0.264756,-0.14327 l -0.408804,-0.4088 c -0.02589,-0.0259 -0.06211,-0.0386 -0.09856,-0.0345 l -0.600857,0.0683 c -0.0097,2.1e-4 -0.02857,0.016 -0.02659,0.0321 9.9e-4,0.005 0.0036,0.0106 0.0099,0.0156 l 0.317592,0.31759 0.135369,0.13537 c 0.02261,0.0226 0.01724,0.0516 -0.01136,0.0657 -0.0525,0.026 -0.134039,0.069 -0.193606,0.11223 -0.02623,0.0185 -0.06307,0.0553 -0.08234,0.0808 -0.0439,0.0585 -0.08779,0.1387 -0.114559,0.1905 -0.01471,0.0284 -0.04426,0.0337 -0.06691,0.011 l -0.213271,-0.21327 -0.235445,-0.23545 c -0.01926,-0.0306 -0.03799,-5.1e-4 -0.04747,0.0166 z"
         sodipodi:nodetypes="ccssccccccccccssccccccccccsscccccsccccsccc" />
      <path
         id="path1453"
         style="opacity:1;fill:#1a1a1a;fill-opacity:0.713363;stroke:#1a1a1a;stroke-width:0.0846044;stroke-miterlimit:4;stroke-dasharray:none;stroke-opacity:1;paint-order:normal"
         d="m -57.088094,107.9107 a 0.66300429,0.37678793 45 0 0 0.73525,0.20238 0.66300429,0.37678793 45 0 0 -0.202389,-0.73524 0.66300429,0.37678793 45 0 0 -0.73524,-0.20239 0.66300429,0.37678793 45 0 0 0.202379,0.73525 z" />
      <path
         id="path879"
         style="opacity:1;fill:none;fill-opacity:0;stroke:#1a1a1a;stroke-width:0.0846044;stroke-linecap:butt;stroke-linejoin:miter;stroke-miterlimit:4;stroke-dasharray:none;stroke-opacity:1"
         d="m -56.38312,106.82111 -0.408804,-0.40881 c -0.02589,-0.0259 -0.0621,-0.0386 -0.09856,-0.0345 l -0.600857,0.0683 c -0.0097,2.1e-4 -0.02857,0.016 -0.02659,0.0321 9.9e-4,0.005 0.0036,0.0106 0.0099,0.0156 l 0.317592,0.31759 0.135369,0.13537 c 0.02261,0.0226 0.01724,0.0516 -0.01136,0.0657 z"
         sodipodi:nodetypes="cscccccscc" />
      <path
         style="fill:#1a1a1a;fill-opacity:1;stroke:#1a1a1a;stroke-width:0.0846044;stroke-linecap:butt;stroke-linejoin:miter;stroke-miterlimit:4;stroke-dasharray:none;stroke-opacity:1"
         d="m -57.45683,107.39574 -0.187837,0.68696"
         id="path1489"
         sodipodi:nodetypes="cc" />
      <path
         id="path1550"
         style="opacity:1;fill:#000000;fill-opacity:0.5;stroke:#1a1a1a;stroke-width:0.0846044;stroke-linecap:butt;stroke-linejoin:miter;stroke-miterlimit:4;stroke-dasharray:none;stroke-opacity:1"
         d="m -57.477072,108.46462 c 0.02107,0.10112 0.01827,0.20571 -0.0085,0.30544 l -0.220211,0.82108 c -0.01653,0.0617 0.0082,0.12689 0.0615,0.16219 l 0.173565,0.1153 c 0.053,0.0352 0.122636,0.0317 0.172009,-0.008 l 1.015826,-0.82685 z"
         sodipodi:nodetypes="cccccccc" />
      <path
         id="path1553"
         style="opacity:1;fill:#000000;fill-opacity:0.5;stroke:#1a1a1a;stroke-width:0.0846044;stroke-linecap:butt;stroke-linejoin:miter;stroke-miterlimit:4;stroke-dasharray:none;stroke-opacity:1"
         d="m -56.001143,106.98869 c 0.101117,0.0211 0.205713,0.0183 0.30545,-0.008 l 0.821074,-0.22021 c 0.06167,-0.0165 0.12689,0.008 0.162188,0.0615 l 0.1153,0.17357 c 0.03518,0.053 0.0317,0.12264 -0.0085,0.172 l -0.826856,1.01583 z"
         sodipodi:nodetypes="cccccccc" />
      <path
         id="path1537"
         style="opacity:1;fill:#000000;fill-opacity:0.5;stroke:#1a1a1a;stroke-width:0.0846044;stroke-linecap:butt;stroke-linejoin:miter;stroke-miterlimit:4;stroke-dasharray:none;stroke-opacity:1"
         d="m -56.282865,109.03328 c 0.05494,-0.0465 0.136881,-0.05 0.198691,-0.0154 0.04653,0.0188 0.09036,0.0457 0.139642,0.0566 0.0575,0.0104 0.114388,-0.0178 0.150974,-0.0612 0.115709,-0.11613 0.232241,-0.23149 0.347453,-0.3481 0.04419,-0.0497 0.04806,-0.12571 0.01568,-0.18256 -0.01906,-0.0472 -0.04654,-0.0915 -0.05685,-0.1417 -0.0072,-0.0454 0.0046,-0.0931 0.03212,-0.12979 0,0 -0.182112,0.36146 -0.323233,0.50166 -0.14123,0.14049 -0.504459,0.32043 -0.504459,0.32043 z"
         sodipodi:nodetypes="ccccccccac" />
      <path
         id="path884"
         style="opacity:1;fill:none;fill-opacity:0;stroke:#1a1a1a;stroke-width:0.0846044;stroke-linecap:butt;stroke-linejoin:miter;stroke-miterlimit:4;stroke-dasharray:none;stroke-opacity:1"
         d="m -57.644634,108.08262 -0.408804,-0.4088 c -0.02589,-0.0259 -0.03863,-0.0621 -0.03449,-0.0986 l 0.06826,-0.60086 c 2.12e-4,-0.01 0.01598,-0.0286 0.0321,-0.0266 0.0052,9.9e-4 0.01063,0.004 0.01558,0.01 l 0.317592,0.31759 0.135369,0.13537 c 0.02261,0.0226 0.0516,0.0172 0.06571,-0.0114 z"
         sodipodi:nodetypes="cscccccscc" />
    </g>
  </g>
</svg>
